# xmcd
#
# Track frame offsets: 
#        150
#        12225
#        24150
#        35325
#        49330
#        66505
#        79705
#        98455
#        113009
#        125534
#        136634
#        151109
#        169409
#        181259
#
# Disc length: 2586 seconds
#
# Revision: 0
# Processed by: cddbd v1.5.1PL2 Copyright (c) Steve Scherf et al.
# Submitted via: ExactAudioCopy v0.95b4
#
DISCID=a50a180e
DTITLE=Fontanna Sunset - Journey To My Saviour's Side
DYEAR=1900
DGENRE=Bluegrass
TTITLE0=Born Again
TTITLE1=March Around The Throne
TTITLE2=Kneel At The Cross
TTITLE3=River Of Jordan
TTITLE4=Nearer My God To Thee
TTITLE5=Journey To My Saviors Side
TTITLE6=Steal Away And Pray
TTITLE7=Blessed Jesus Hold My Hand
TTITLE8=Going Back Home
TTITLE9=Joshua
TTITLE10=When I See My Saviors Face
TTITLE11=The Family Who Prays
TTITLE12=Echoes From The Burning Bush
TTITLE13=Swing Low
EXTD=
EXTT0=
EXTT1=
EXTT2=
EXTT3=
EXTT4=
EXTT5=
EXTT6=
EXTT7=
EXTT8=
EXTT9=
EXTT10=
EXTT11=
EXTT12=
EXTT13=
PLAYORDER=
